<?xml version="1.0" encoding="UTF-8"?>
<!DOCTYPE svg PUBLIC "-//W3C//DTD SVG 1.1//EN" "http://www.w3.org/Graphics/SVG/1.1/DTD/svg11.dtd">
<!-- Creator: CorelDRAW -->
<svg xmlns="http://www.w3.org/2000/svg" xml:space="preserve" width="100px" height="100px" version="1.1" style="shape-rendering:geometricPrecision; text-rendering:geometricPrecision; image-rendering:optimizeQuality; fill-rule:evenodd; clip-rule:evenodd"
viewBox="0 0 2.12 2.12"
 xmlns:xlink="http://www.w3.org/1999/xlink"
 xmlns:xodm="http://www.corel.com/coreldraw/odm/2003">
 <defs>
  <style type="text/css">
   <![CDATA[
    .fil0 {fill:#8D0606}
   ]]>
  </style>
 </defs>
 <g id="Camada_x0020_1">
  <metadata id="CorelCorpID_0Corel-Layer"/>
  <g id="_2511763493664">
   <path class="fil0" d="M0.56 1.9l0 0.13c-0.08,0 -0.16,0 -0.25,0 -0.06,0 -0.18,0.02 -0.21,-0.04 0,0 0,0.01 -0.01,-0.02 0,-0.01 0,-0.03 0,-0.03 0,-0.02 0,-0.03 0.01,-0.05 0.05,-0.01 0.27,-0.01 0.35,-0.01 0.02,0 0.05,0 0.07,0 0.04,0.01 0.03,0 0.04,0.02zm-0.37 -0.1c-0.01,-0.17 0,-0.35 0,-0.52 0,-0.14 0,-0.13 0.14,-0.13 0.36,0.01 0.41,-0.04 0.41,0.11 0,0.12 0.02,0.73 -0.02,0.76 -0.13,0.04 -0.04,-0.14 -0.09,-0.21 -0.05,-0.03 -0.35,-0.01 -0.44,-0.01zm1.62 -0.64c0.02,0.03 0.01,0.03 0.01,0.07l-0.08 0c-0.02,0 -0.04,-0.01 -0.04,0.04 0,0.04 0.01,0.04 0.04,0.04l0.08 0c0,0.04 0.01,0.04 -0.01,0.06 0,0.3 -0.32,0.63 -0.7,0.65 0,-0.04 0,-0.09 -0.05,-0.08 -0.05,0 -0.04,0.04 -0.04,0.09l-0.19 -0.04c0,-0.23 0,-0.47 0,-0.71 0,-0.27 -0.11,-0.22 -0.49,-0.22 0,-0.12 0.14,-0.29 0.24,-0.37 0.11,-0.1 0.24,-0.16 0.44,-0.18 0,0.07 -0.01,0.1 0.07,0.09 0.02,-0.04 0.02,-0.03 0.02,-0.09 0.12,0.01 0.17,0.04 0.26,0.07 -0.05,0.05 -0.13,-0.02 -0.13,0.14 0.01,0.12 0.07,0.07 0.13,0.12 -0.05,0.08 -0.07,0.12 0.01,0.19 0.08,0.07 0.11,0.02 0.18,-0.01 0.01,0.07 0.01,0.12 0.08,0.13 0.09,0.01 0.13,-0.02 0.16,-0.07l0.01 0.08zm-0.38 -0.7c0.07,-0.01 0.06,0.06 0.15,0.04 0.09,-0.03 0.05,-0.06 0.08,-0.13 0.11,-0.01 -0.01,0.08 0.12,0.13 0.1,0.03 0.09,-0.08 0.16,-0.03 -0.02,0.07 -0.07,0.07 -0.04,0.15 0.02,0.04 0.02,0.05 0.06,0.06 0.05,0.01 0.06,-0.01 0.07,0.04 -0.01,0.04 -0.1,-0.01 -0.13,0.09 -0.03,0.07 0.01,0.07 0.04,0.13l-0.03 0.03c-0.05,-0.02 -0.08,-0.07 -0.15,-0.04 -0.1,0.05 0.01,0.13 -0.1,0.12l-0.03 -0.09c-0.01,-0.02 -0.06,-0.05 -0.1,-0.04 -0.04,0.02 -0.05,0.05 -0.09,0.04 -0.04,-0.09 0.08,-0.01 0,-0.2 -0.02,-0.01 -0.04,-0.01 -0.06,-0.02 -0.05,-0.01 -0.03,0.01 -0.05,-0.02 0,-0.05 0.04,-0.03 0.11,-0.05 0.08,-0.18 -0.04,-0.13 -0.01,-0.21zm-0.5 -0.13l0.27 0 0 0.1c-0.02,0 -0.25,0 -0.28,0l0.01 -0.1zm0.36 -0.23l0 0.13c-0.03,0.02 -0.06,0.01 -0.09,0.01l0 -0.14c0.02,-0.01 0.03,-0.01 0.05,-0.01l0.04 0.01zm-0.27 0l0.09 0 0 0.14 -0.09 0 0 -0.14zm-0.19 0c0.03,-0.02 0.06,-0.01 0.1,0l0 0.14c-0.04,0 -0.07,0.01 -0.1,-0.01l0 -0.13zm1.17 0.74c0.04,-0.02 0.06,-0.02 0.09,-0.04 0.02,-0.02 0.08,-0.16 -0.05,-0.2l-0.05 -0.02c0.04,-0.08 0.08,-0.11 0,-0.18 -0.08,-0.08 -0.1,-0.03 -0.18,0 -0.04,-0.08 0,-0.13 -0.14,-0.13 -0.11,0.01 -0.09,0.05 -0.12,0.14 -0.07,-0.05 -0.12,-0.09 -0.2,0.01 -0.02,0.03 -0.01,0.04 -0.04,0.04 -0.03,-0.01 -0.02,-0.04 -0.02,-0.11 0.02,-0.05 0.08,-0.01 0.09,-0.1 0.05,-0.31 -0.11,-0.24 -0.32,-0.24 -0.11,0 -0.29,-0.04 -0.31,0.07 -0.01,0.02 -0.03,0.19 0.03,0.23 0.06,0.03 0.05,-0.03 0.05,0.14 -0.33,0.1 -0.47,0.29 -0.59,0.61 -0.06,0.02 -0.11,0.02 -0.13,0.09 -0.02,0.05 -0.01,0.56 -0.01,0.64l-0.08 0.02c-0.04,0.12 -0.02,0.28 0.1,0.3 0.08,0.02 0.32,0.01 0.42,0.01 0.32,0 0.19,-0.04 0.27,-0.04 0.04,0 0.21,0.08 0.46,0.01 0.22,-0.06 0.39,-0.19 0.49,-0.34 0.1,-0.13 0.21,-0.46 0.13,-0.67 0.02,-0.03 0.03,-0.01 0.07,-0.03 0.13,-0.08 0.05,-0.17 0.03,-0.21l0.01 0z"/>
   <path class="fil0" d="M1.05 1.2c0.08,-0.02 0.12,0.11 0.03,0.14 -0.08,0.02 -0.13,-0.11 -0.03,-0.14zm-0.03 -0.14c0,0.11 -0.04,0.03 -0.09,0.12 -0.08,0.13 0.03,0.3 0.2,0.23 0.05,0.05 0.1,0.1 0.15,0.15 0.03,0.03 0.04,0.05 0.06,0.09 0.02,0.05 0.03,0.11 0.17,0.07 0.03,-0.2 -0.05,-0.13 -0.16,-0.22 -0.05,-0.04 -0.09,-0.1 -0.15,-0.14 0.07,-0.26 -0.09,-0.18 -0.09,-0.28 0,-0.11 0.02,-0.1 0.04,-0.18 0.01,-0.05 -0.04,-0.11 -0.08,-0.11 -0.05,0 -0.1,0.05 -0.09,0.1 0,0.06 0.04,0.09 0.04,0.17z"/>
   <path class="fil0" d="M1.65 0.64c0.1,-0.05 0.16,0.12 0.06,0.15 -0.1,0.03 -0.15,-0.11 -0.06,-0.15zm-0.03 -0.09c-0.21,0.08 -0.09,0.41 0.13,0.32 0.2,-0.08 0.08,-0.4 -0.13,-0.32z"/>
   <path class="fil0" d="M0.61 1.25c-0.07,0 -0.24,-0.02 -0.18,0.07 0.02,0.03 0.24,0.03 0.26,-0.01 0.03,-0.05 -0.03,-0.06 -0.08,-0.06z"/>
   <path class="fil0" d="M0.5 1.52l0.12 0c0.1,0 0.1,-0.09 0,-0.09l-0.14 0c-0.09,0 -0.09,0.09 0.02,0.09z"/>
   <path class="fil0" d="M0.43 1.7c0.09,0.01 0.11,0.01 0.2,0 0.09,0 0.1,-0.09 -0.01,-0.09 -0.12,0 -0.22,-0.02 -0.19,0.09z"/>
   <path class="fil0" d="M0.3 1.34c0.07,0 0.08,-0.01 0.07,-0.08 -0.09,-0.04 -0.16,0.01 -0.13,0.06 0.02,0.02 0.03,0.02 0.06,0.02z"/>
   <path class="fil0" d="M0.25 1.44c-0.02,0.04 -0.02,0.04 0,0.08 0.17,0.03 0.15,-0.1 0.05,-0.09l-0.05 0.01z"/>
   <path class="fil0" d="M0.3 1.7c0.03,0 0.05,0 0.06,-0.01 0.02,-0.06 0.01,-0.08 -0.06,-0.08 -0.09,0 -0.09,0.09 0,0.09z"/>
  </g>
 </g>
</svg>
